<svg xmlns="http://www.w3.org/2000/svg" xmlns:xlink="http://www.w3.org/1999/xlink" viewBox="0,0,256,256" width="480px" height="480px"><g transform="translate(25.6,25.6) scale(0.8,0.8)"><g fill="#2395ec" fill-rule="nonzero" stroke="none" stroke-width="1" stroke-linecap="butt" stroke-linejoin="miter" stroke-miterlimit="10" stroke-dasharray="" stroke-dashoffset="0" font-family="none" font-weight="none" font-size="none" text-anchor="none" style="mix-blend-mode: normal"><g transform="translate(4.05705,-46.4004) scale(5.33333,5.33333)"><path d="M47.527,19.847c-0.13,-0.102 -1.345,-1.007 -3.908,-1.007c-0.677,0.003 -1.352,0.06 -2.019,0.171c-0.496,-3.354 -3.219,-4.93 -3.345,-5.003l-0.688,-0.392l-0.453,0.644c-0.567,0.866 -1.068,1.76 -1.311,2.763c-0.459,1.915 -0.18,3.713 0.806,5.25c-1.192,0.655 -3.223,0.713 -3.609,0.727h-31.418c-0.826,0.001 -1.496,0.66 -1.501,1.474c-0.037,2.733 0.353,5.553 1.306,8.119c1.089,2.818 2.71,4.894 4.818,6.164c2.362,1.427 6.2,2.243 10.551,2.243c1.965,0.006 3.927,-0.169 5.859,-0.524c2.686,-0.487 5.271,-1.413 7.647,-2.74c1.958,-1.119 3.72,-2.542 5.219,-4.215c2.505,-2.798 3.997,-5.913 5.107,-8.682c0.149,0 0.298,0 0.442,0c2.743,0 4.429,-1.083 5.359,-1.99c0.618,-0.579 1.101,-1.284 1.414,-2.065l0.197,-0.568z"></path><path d="M8,22h-3c-0.552,0 -1,-0.448 -1,-1v-3c0,-0.552 0.448,-1 1,-1h3c0.552,0 1,0.448 1,1v3c0,0.552 -0.448,1 -1,1z"></path><path d="M14,22h-3c-0.552,0 -1,-0.448 -1,-1v-3c0,-0.552 0.448,-1 1,-1h3c0.552,0 1,0.448 1,1v3c0,0.552 -0.448,1 -1,1z"></path><path d="M20,22h-3c-0.552,0 -1,-0.448 -1,-1v-3c0,-0.552 0.448,-1 1,-1h3c0.552,0 1,0.448 1,1v3c0,0.552 -0.448,1 -1,1z"></path><path d="M26,22h-3c-0.552,0 -1,-0.448 -1,-1v-3c0,-0.552 0.448,-1 1,-1h3c0.552,0 1,0.448 1,1v3c0,0.552 -0.448,1 -1,1z"></path><path d="M14,16h-3c-0.552,0 -1,-0.448 -1,-1v-3c0,-0.552 0.448,-1 1,-1h3c0.552,0 1,0.448 1,1v3c0,0.552 -0.448,1 -1,1z"></path><path d="M20,16h-3c-0.552,0 -1,-0.448 -1,-1v-3c0,-0.552 0.448,-1 1,-1h3c0.552,0 1,0.448 1,1v3c0,0.552 -0.448,1 -1,1z"></path><path d="M26,16h-3c-0.552,0 -1,-0.448 -1,-1v-3c0,-0.552 0.448,-1 1,-1h3c0.552,0 1,0.448 1,1v3c0,0.552 -0.448,1 -1,1z"></path><path d="M26,10h-3c-0.552,0 -1,-0.448 -1,-1v-3c0,-0.552 0.448,-1 1,-1h3c0.552,0 1,0.448 1,1v3c0,0.552 -0.448,1 -1,1z"></path><path d="M32,22h-3c-0.552,0 -1,-0.448 -1,-1v-3c0,-0.552 0.448,-1 1,-1h3c0.552,0 1,0.448 1,1v3c0,0.552 -0.448,1 -1,1z"></path></g></g><g fill="#0b0b0b" fill-rule="nonzero" stroke="none" stroke-width="1" stroke-linecap="butt" stroke-linejoin="miter" stroke-miterlimit="10" stroke-dasharray="" stroke-dashoffset="0" font-family="none" font-weight="none" font-size="none" text-anchor="none" style="mix-blend-mode: normal"><g><path d="M25.39167,200.41167h15.63c5.56,0 10.14333,1.77667 13.75,5.33c3.60667,3.55333 5.41,8.11 5.41,13.67v0v7.53c0,5.58667 -1.80333,10.14333 -5.41,13.67c-3.60667,3.53333 -8.19,5.3 -13.75,5.3v0h-20.47v-5.47l4.84,-0.94v-32.65l-4.84,-0.94v-5.5zM40.55167,207.44167h-6.03v31.47h6.03c3.27333,0 5.83667,-1.10333 7.69,-3.31c1.85333,-2.20667 2.78,-5.09333 2.78,-8.66v0v-7.59c0,-3.52 -0.92667,-6.38667 -2.78,-8.6c-1.85333,-2.20667 -4.41667,-3.31 -7.69,-3.31zM64.86167,229.35167v-0.66c0,-5.04 1.41333,-9.17 4.24,-12.39c2.82,-3.22 6.72,-4.83 11.7,-4.83v0c5,0 8.91,1.60667 11.73,4.82c2.82667,3.20667 4.24,7.34 4.24,12.4v0v0.66c0,5.08 -1.41333,9.22 -4.24,12.42c-2.82,3.2 -6.71,4.8 -11.67,4.8v0c-5.02,0 -8.94,-1.6 -11.76,-4.8c-2.82667,-3.2 -4.24,-7.34 -4.24,-12.42zM73.99167,228.69167v0.66c0,3.08 0.54,5.55333 1.62,7.42c1.08667,1.86667 2.83667,2.8 5.25,2.8v0c2.35333,0 4.07667,-0.94 5.17,-2.82c1.1,-1.87333 1.65,-4.34 1.65,-7.4v0v-0.66c0,-3 -0.55333,-5.44667 -1.66,-7.34c-1.10667,-1.9 -2.84667,-2.85 -5.22,-2.85v0c-2.37333,0 -4.10333,0.95 -5.19,2.85c-1.08,1.89333 -1.62,4.34 -1.62,7.34zM116.61167,239.57167v0c1.62667,0 2.93,-0.47667 3.91,-1.43c0.98,-0.94667 1.47,-2.21 1.47,-3.79v0h8.25l0.09,0.19c0.08667,3.41333 -1.19333,6.27 -3.84,8.57c-2.64667,2.30667 -5.94,3.46 -9.88,3.46v0c-5.04,0 -8.92333,-1.59333 -11.65,-4.78c-2.73333,-3.19333 -4.1,-7.29 -4.1,-12.29v0v-0.93c0,-4.98 1.40333,-9.07333 4.21,-12.28c2.8,-3.21333 6.79333,-4.82 11.98,-4.82v0c2.72667,0 5.17333,0.40667 7.34,1.22c2.16667,0.81333 3.97,1.96 5.41,3.44v0l0.13,9.03h-7.41l-1.5,-5.28c-0.46,-0.39333 -1.02333,-0.72333 -1.69,-0.99c-0.66667,-0.26 -1.42667,-0.39 -2.28,-0.39v0c-2.58,0 -4.40333,0.94 -5.47,2.82c-1.06,1.87333 -1.59,4.29 -1.59,7.25v0v0.93c0,3.02667 0.49,5.46 1.47,7.3c0.98,1.84667 2.69667,2.77 5.15,2.77zM138.36167,203.60167l-4.87,-0.94v-5.5h13.97v28.25h2.03l5.25,-7.41l-2.97,-0.4v-5.5h16.62v5.5l-4,0.9l-6.09,8.38l8.53,12.84l3.47,0.72v5.47h-15.62v-5.47l1.87,-0.31l-5.19,-8.38h-3.9v7.75l3.93,0.94v5.47h-17.43v-5.47l4.4,-0.94zM189.05167,246.57167v0c-4.87333,0 -8.77,-1.56333 -11.69,-4.69c-2.91333,-3.12667 -4.37,-7.09667 -4.37,-11.91v0v-1.25c0,-5.02 1.38,-9.15333 4.14,-12.4c2.76,-3.25333 6.46333,-4.87 11.11,-4.85v0c4.56,0 8.1,1.37667 10.62,4.13c2.52,2.74667 3.78,6.46333 3.78,11.15v0v4.97h-20.18l-0.07,0.19c0.16667,2.22667 0.91333,4.06 2.24,5.5c1.32,1.44 3.11667,2.16 5.39,2.16v0c2.02,0 3.69667,-0.20333 5.03,-0.61c1.33333,-0.40667 2.79333,-1.04667 4.38,-1.92v0l2.46,5.62c-1.39333,1.10667 -3.2,2.03333 -5.42,2.78c-2.22,0.75333 -4.69333,1.13 -7.42,1.13zM188.24167,218.50167v0c-1.68667,0 -3.02,0.64667 -4,1.94c-0.98,1.29333 -1.58333,2.99333 -1.81,5.1v0l0.09,0.15h11.19v-0.81c0,-1.94 -0.45333,-3.48667 -1.36,-4.64c-0.90667,-1.16 -2.27667,-1.74 -4.11,-1.74zM207.64167,245.91167v-5.47l4.38,-0.94v-20.96l-4.84,-0.94v-5.5h13.34l0.41,4.94c0.78667,-1.75333 1.80667,-3.12 3.06,-4.1c1.24667,-0.98 2.69333,-1.47 4.34,-1.47v0c0.48,0 0.98667,0.03667 1.52,0.11c0.52667,0.07333 0.97,0.16333 1.33,0.27v0l-0.97,8.31l-3.75,-0.09c-1.33333,0 -2.44,0.26 -3.32,0.78c-0.87333,0.52 -1.54,1.26 -2,2.22v0v16.43l4.38,0.94v5.47z"></path></g></g></g></svg>